<svg width="3247" height="3245" viewBox="0 0 3247 3245" fill="none" xmlns="http://www.w3.org/2000/svg">
<g clip-path="url(#clip0_17708_1666)">
<rect width="3247" height="3245" fill="white"/>
<path fill-rule="evenodd" clip-rule="evenodd" d="M984.613 1530.11C985.68 1537.75 992.733 1543.2 997.146 1551.47C1050.17 1651.09 1024.65 1620.97 1044 1713.83C1045.76 1722.24 1051.09 1738.4 1050.72 1744.63C1027.92 1759.64 1013.27 1759.27 989.693 1766.07C968.546 1772.16 963.373 1785.32 941.026 1750.65C934.626 1755.61 904.573 1812.87 900.68 1826.63C898.786 1833.31 906.6 1848.57 909.346 1855.17C921.373 1884.15 928.187 1877.24 919.92 1913.84C913.2 1943.61 918.08 1950.96 885.853 1959.36C885.44 1967.44 893.427 1994.13 897.067 2000.32C899.72 2004.83 966.146 2042.52 984.493 2067.32C994.68 2081.11 1021.23 2115.05 1023.19 2131.33C1025.05 2146.85 1026.37 2162.55 1028.24 2177.75C1029.76 2190.07 1036.28 2212.72 1029.87 2222.99C1015.48 2224.67 1011.23 2192.08 1006.55 2179.76C999.413 2160.99 992.293 2149.92 984.187 2134.04C968.24 2102.85 946.773 2109.51 927.24 2071.43C924.907 2066.88 923 2063.16 918.733 2060.56C915.987 2076.2 910.973 2092.88 907.787 2109.23C904.373 2126.75 904.626 2147.03 904.013 2165.41C902.893 2198.76 895.427 2239.91 891.12 2273.47C886.133 2312.47 884.827 2346.48 884.307 2386.57C883.813 2423.84 878.293 2460.43 872.96 2496.29C862.653 2565.57 865 2646.43 846.76 2710.81C837.853 2742.28 821.32 2793.36 807.56 2822.8C802.146 2834.37 803.973 2831.76 793.013 2838.13L754.92 2861.09C761.973 2874.27 803.506 2893.48 821.546 2894.09C833.173 2894.48 839.613 2891.64 849.573 2896.23C850.72 2901.72 852.013 2929.6 849.813 2934.85C848.72 2937.48 844.533 2942.53 842.16 2947.08C839.52 2952.12 836.427 2956.44 834.507 2961.16C837.36 2965.25 854.373 2978.6 859.573 2981.21C871.533 2975.75 869.64 2963.85 881.16 2958.39C889.266 2959.55 898.933 2970.73 906.573 2975.57C916.013 2981.55 922.92 2985.64 934.707 2990.65C986.533 3012.67 1009.83 3004.85 1026.11 3030.41C1059.15 3082.28 1053.88 3060.57 1118.15 3070.19C1125.12 3024.35 1102.23 3013.67 1143.43 2964.39C1156.83 2948.35 1159.53 2946.32 1170.28 2926.44C1192.32 2885.68 1187.04 2889.75 1188.19 2846.52C1188.95 2817.71 1167.69 2803.52 1144.88 2790.44C1125.97 2779.6 1132.96 2764.77 1132.95 2736.96C1132.93 2715.29 1133.2 2693.8 1133.92 2672.08L1175.11 2640.87C1185.95 2643.48 1192.27 2657.33 1204.52 2661.63C1219.99 2624.91 1201.39 2631.52 1264.96 2622.39C1281.55 2620.01 1290.4 2618.01 1305.83 2613.63C1346.56 2602.05 1339.44 2629.68 1380.56 2588.67C1390.93 2578.31 1422.89 2546.35 1420.35 2529.99C1418.55 2518.37 1408.6 2499.8 1409.41 2489.47C1423.64 2480.76 1438.24 2483.53 1453.4 2478.81C1455.59 2456.32 1431.81 2445.24 1452.15 2421.12C1472.28 2397.23 1488.68 2369.51 1512.52 2350.32C1518.93 2345.16 1533.47 2331.97 1537.81 2324.04C1544.87 2311.17 1530.21 2294.08 1537.84 2280.99C1541 2275.56 1556.12 2257.41 1561.2 2252.87C1569.05 2245.81 1572.03 2248.55 1583.64 2248.99C1615.45 2250.16 1605.37 2241.49 1627.61 2267.84C1632.07 2273.12 1638.99 2284.41 1643.67 2287.96C1655.24 2284.16 1661.57 2274.08 1671.84 2270.48C1708.56 2257.57 1712.64 2278.32 1731.23 2233.53C1736.88 2219.92 1730.87 2206.52 1734.8 2192.31C1737.55 2182.4 1763.01 2142.07 1769.92 2131.05C1787.53 2102.96 1800.24 2106.05 1829.39 2094.6C1826.93 2077.77 1817.44 2060.29 1813.56 2041.88C1808.8 2019.29 1824.85 1994.4 1818.48 1984.07C1812.6 1974.51 1787.09 1955.72 1795.59 1944.28L1829.57 1908.41C1843.23 1895.73 1841.93 1895.75 1833.05 1856.35C1829 1838.37 1820.83 1819.67 1818.11 1801.72C1815.27 1783.05 1805.69 1787 1781.8 1769.91C1766.33 1758.84 1762.91 1745.15 1750.56 1731.4C1683.17 1730 1613.28 1724.85 1549.71 1748.11C1530.79 1755.03 1537.21 1751.68 1520.39 1748.87C1501.6 1745.72 1505.44 1750.64 1496.84 1734.32C1492.4 1725.89 1489.25 1717.88 1485.35 1709.28C1477.93 1693.03 1478.32 1700.68 1467.27 1690.84L1448.69 1672.87C1415.44 1642.07 1425.04 1644.83 1406.15 1604.15C1396.79 1583.99 1375.08 1555.69 1361.24 1537.79C1345.72 1517.71 1344.21 1527.99 1308.24 1531.59C1274.53 1534.95 1278.45 1536.2 1269.83 1501.27C1267.19 1490.57 1238.52 1479.68 1226.13 1471.95C1206.33 1459.61 1192.64 1470.31 1174.25 1480.59C1161.13 1487.93 1163.29 1487.32 1146.41 1483.51C1111.41 1475.6 1126.99 1474.31 1084.04 1481.77C1048.88 1487.88 1055.81 1486.44 1035.44 1506.19C1028.76 1512.67 1026.25 1519.11 1014.64 1521.91C1004.12 1524.47 993.293 1525.69 984.613 1530.11Z" fill="#B3B6C0"/>
<path fill-rule="evenodd" clip-rule="evenodd" d="M1459.4 2481.89C1449.72 2487.25 1428.37 2487.4 1414.59 2492.84C1417.13 2503.35 1422.71 2515.63 1425.27 2526.69C1428.81 2541.97 1419.36 2548.92 1412.69 2559.35C1403.64 2573.53 1381.92 2596.92 1369.07 2607.08C1342.97 2627.71 1341.84 2608.52 1295.88 2621.89C1272.23 2628.76 1239.19 2629.81 1217.99 2636.73C1215.83 2646.28 1213.01 2660.44 1206.67 2666.89C1192.89 2667.17 1186.61 2652.35 1175.11 2646.84C1169.33 2649.96 1164.03 2656.89 1157.81 2661.55C1151.76 2666.08 1145.16 2669.87 1139.52 2674.75L1137.88 2770.31C1138.61 2783.03 1144.51 2783.92 1153.2 2788.77C1194.37 2811.75 1194.52 2831.17 1194.15 2879.83C1193.99 2900.31 1176.21 2927.63 1164.81 2947.53C1159.07 2957.56 1155.25 2957.84 1149.35 2965.25C1117.77 3004.93 1124.69 3011.09 1124.23 3070.4C1153.45 3081.44 1160.79 3076.97 1186.8 3100.56C1196.37 3109.23 1200.96 3114.36 1217.48 3108.17C1258.45 3092.83 1256.59 3111.41 1296.33 3111.84C1310.68 3111.99 1327.2 3113.63 1340.68 3110.12C1351.07 3107.41 1369.52 3104.32 1370.43 3093.91C1371.52 3081.45 1359.59 3066.32 1366.17 3054.16C1375.81 3048.39 1415.53 3060.68 1425.01 3064.97C1445.45 3074.23 1483.65 3098.75 1502.17 3099.77C1514.04 3100.43 1529.8 3095.57 1538.77 3096.87C1549.97 3098.49 1551.16 3107.21 1557.2 3115.45C1562.05 3122.07 1568.76 3131.08 1573.55 3137.05C1589.01 3138.53 1604.2 3131.47 1618.48 3133.57C1621.83 3134.07 1651.69 3145.41 1654.97 3147.07C1656.01 3158.16 1643.12 3175.97 1639 3183.69C1647.67 3190.2 1682.65 3192.17 1695.37 3196.48C1706.84 3200.36 1714.96 3232.81 1718.08 3245.23C1726.68 3243.79 1740.13 3232.79 1745.69 3227.85C1758.31 3216.63 1758.28 3218.27 1779.64 3216.85C1808.64 3214.92 1807.93 3234.36 1830.89 3232.93C1889.17 3229.29 1863.67 3233.25 1918.21 3206.07C1955.19 3187.64 1962.01 3195.84 1990.61 3199.95C1988.04 3186.35 1968.2 3163.64 1966.79 3135.6C1963.95 3079.11 1967.95 3108.81 1954.68 3058.41C1949.48 3038.67 1951.79 3038.17 1956.84 3020.48C1962.36 3001.17 1966.63 2972.16 1979.68 2953.61C1982.95 2948.96 1986.65 2947.01 1991.11 2943.48C2014.29 2925.09 2004.72 2921.41 2057.13 2896.57C2072.27 2889.4 2070.41 2886.19 2078.51 2873.11C2085.73 2861.43 2087.45 2855.44 2097.96 2847.71L2191.41 2785.04C2206.04 2773.53 2201.75 2768.33 2240.19 2799.57C2248.72 2806.51 2247.95 2805.25 2260.36 2800.89C2291.95 2789.8 2277.16 2797.75 2301.96 2752.79C2311.47 2735.56 2331.89 2749.01 2350.91 2742.76C2354.76 2740 2353.99 2720.71 2356.11 2710.6C2358.03 2701.4 2365.57 2653.41 2369.8 2649.55C2378.45 2641.6 2402.65 2649.03 2400.73 2638.64L2381.73 2601.51C2373.75 2584.92 2370.47 2572.67 2364.69 2553.73C2356.08 2525.39 2363.47 2530.43 2335.41 2519.93C2264.99 2493.61 2294.2 2503.07 2258.75 2530.2C2246.65 2539.45 2241.4 2532.15 2224.83 2517.59C2211.52 2505.91 2208.36 2498.32 2203.83 2485.45L2173.55 2407.79C2164.91 2387.84 2169.76 2378.93 2165.39 2360.91C2163.24 2352.05 2146.65 2338.56 2140.76 2332.63C2133.03 2324.85 2121.23 2311.33 2111.76 2306.51C2095.67 2307.29 2086.89 2322.27 2073.37 2321.51C2069.31 2316.53 2049.97 2272.81 2047.59 2266.59C2034.45 2267.47 1996.65 2297.61 1983.24 2302.81C1975.23 2305.91 1965.47 2308.39 1958.53 2311.03C1950.33 2343.87 1958.08 2364.57 1923.44 2335.71C1915.13 2328.77 1909.24 2322.57 1903.64 2312.32C1898.08 2302.15 1895.91 2289.55 1885.89 2285.09C1872.57 2291.39 1845.83 2318.07 1838.08 2332.09C1834.17 2339.17 1830.48 2347.31 1826.97 2354.19C1823.16 2361.64 1818.95 2366.51 1814.81 2373.6C1798.24 2402.11 1795.39 2383.52 1771.41 2383.89C1760.97 2384.04 1750.71 2388.04 1741.41 2383.08C1736.09 2375.36 1738.2 2332.67 1735.45 2319.43C1733.79 2311.44 1718.52 2273.4 1714.84 2268.47C1703.69 2269.92 1689.63 2271.39 1678.97 2274.17C1664.96 2277.85 1662.32 2284.6 1652.04 2290.59C1638.99 2298.19 1634.69 2285.56 1628.13 2277.28C1621.95 2269.48 1613.56 2261.23 1609.31 2253.45C1594.2 2255.28 1582.87 2254.05 1568.01 2253.79L1547.63 2277.48C1536.71 2291.67 1541.93 2289.19 1545.03 2312.31C1547.81 2333.15 1517.88 2352.47 1505.69 2363.4L1454.55 2426.85C1440.64 2444.44 1461.17 2457.53 1459.4 2481.89Z" fill="#B3B6C0"/>
<path fill-rule="evenodd" clip-rule="evenodd" d="M1845.37 1663.69C1812.27 1685.37 1797.28 1663.79 1772.33 1705.03C1767.43 1713.15 1759.87 1722.39 1756.43 1728.89C1764.75 1747.01 1780.39 1763.53 1798.57 1774.71C1831.07 1794.67 1815.25 1776.68 1831.68 1831.29C1835.52 1844.05 1849.93 1892.96 1842.84 1903.29C1840.13 1907.23 1835.45 1910.01 1831.61 1913.75L1798.75 1949.77C1803.19 1962.05 1813.96 1968.49 1821.08 1978.05C1830.76 1991.08 1824.12 1999.96 1819.77 2016.65C1811.28 2049.33 1837.59 2076.91 1834.11 2097.49C1801.27 2117.15 1795.13 2099.36 1771.41 2139.21C1764.81 2150.29 1759.27 2160.73 1752.16 2171.43C1724.87 2212.53 1753.23 2205.51 1727.96 2251.87C1717.57 2270.91 1721.68 2268.37 1730.16 2289.84C1736.24 2305.23 1741.07 2311.09 1742.15 2330.07C1742.64 2338.84 1743.69 2373.79 1745.35 2379.2C1756.37 2381.12 1763.93 2377.88 1774.59 2378.43C1785.59 2378.97 1789.28 2383.65 1801.88 2383.24C1821.09 2355.71 1824.93 2341.52 1836.45 2323.83C1843.17 2313.51 1874.73 2281.17 1887.56 2279.53C1899.91 2283.88 1904.88 2304.44 1912.21 2315.4C1917.79 2323.72 1934.28 2341.93 1945.68 2343.16C1950.84 2335.84 1949.64 2324.99 1951.56 2316.01C1954 2304.55 1959.07 2304.56 1970.09 2301.37C1981.81 2297.97 2023.33 2273.55 2035.12 2265.03C2046.04 2257.13 2050.07 2259.69 2055.2 2270.41C2059.57 2279.55 2071.64 2311.16 2076.88 2316.12C2084.52 2313.17 2101.63 2299.92 2111.29 2300.92C2119.77 2301.79 2134.85 2319.93 2140.39 2324.72C2187.4 2365.4 2163.93 2356.85 2174.85 2394.8C2178.48 2407.41 2184.76 2419.12 2189.19 2432.04C2195.43 2450.25 2209.65 2492.45 2220.73 2505.11C2226.91 2512.16 2241.92 2526.76 2249.6 2529.12C2259.71 2524.64 2274.19 2502.07 2284.13 2499.15C2296.25 2495.61 2341.59 2516.48 2356.61 2522.16C2374.88 2529.08 2382.11 2499.09 2400.07 2518.43C2405.55 2524.33 2410.35 2531.71 2417.33 2534.41C2422.39 2531.11 2433.13 2523.33 2436.17 2517.75C2432.27 2505.29 2420.72 2496.47 2425.45 2481.09C2432.67 2478.52 2446.51 2478.03 2455.24 2480C2473.36 2484.12 2458.31 2518.09 2471.23 2528.63C2487.95 2542.25 2522.56 2541.36 2541.76 2556.09C2550.07 2562.47 2573.29 2577.57 2582.08 2580.76C2592.79 2566.68 2607.84 2574.56 2606.44 2551.28C2604.99 2527.16 2592.16 2523.97 2576.97 2512.55C2566.12 2504.39 2563.05 2502.96 2559.92 2487.92C2557.31 2475.32 2547.28 2452.45 2556.71 2441.2C2568.84 2432.56 2592.24 2440.76 2607.28 2435.36C2611.76 2409.71 2592.41 2388.48 2619.05 2377.32C2647.39 2365.45 2644.08 2367.19 2663.84 2345.75C2669.71 2339.37 2676.19 2332.08 2684.43 2328.13C2732.84 2304.93 2752.17 2319.21 2780.59 2309.65C2781.79 2300.73 2777.12 2291.59 2774.92 2282.89C2771.07 2267.76 2771.44 2269.12 2756.75 2266.27C2723.12 2259.75 2735.31 2250.28 2746.08 2230.36C2750.11 2222.89 2753.95 2213.25 2762.81 2212.43C2764.19 2212.31 2791.89 2214.6 2794.25 2215C2804.03 2216.68 2805.67 2224.75 2815.85 2228.84C2837.16 2237.43 2871.93 2212.75 2890.15 2203.37C2905.8 2195.31 2921.95 2189.05 2937.71 2181.19C2953.68 2173.21 2969.97 2167.81 2975.55 2149.24C2998.09 2074.03 2992.25 2101.04 2951.73 2071.37C2932.72 2057.47 2941.99 2050 2937.52 2027.89C2935.37 2017.28 2914.04 2009.12 2906.31 2000.55C2901.67 1995.4 2894.92 1958.33 2895.45 1950.75C2901.33 1947.01 2903.43 1943.77 2909.01 1939.93C2920.73 1931.92 2935.24 1925.29 2945.24 1914.69C2948.51 1911.24 2949.27 1911.63 2952.33 1908.25C2951.84 1905.89 2935.51 1871.72 2933.35 1868.85C2924.97 1857.69 2903.31 1847.85 2899.65 1842.79C2894.09 1835.08 2903.17 1802.71 2904.36 1791.87C2905.28 1783.55 2901.03 1775.05 2898.23 1767.81C2894.64 1758.47 2894.97 1752.52 2892.29 1743.96C2882.04 1739.08 2835.61 1743.31 2822.13 1744.64C2783.27 1748.52 2781.08 1731.6 2777.84 1775.41C2775.41 1808.09 2772.17 1810.77 2755.72 1828.16C2746.88 1837.52 2743.35 1837.73 2726.81 1836C2714.05 1834.67 2704.72 1836 2692.69 1832.53C2693.37 1824.28 2698.35 1816.69 2702.67 1809.96L2740.88 1748.83C2734.89 1742.48 2723.12 1736.73 2714.6 1733.72C2708.81 1739.23 2697.41 1758.32 2691.91 1765.97C2676.69 1787.12 2684.65 1783.32 2654.83 1780.37C2637.25 1778.63 2624.51 1776.23 2608.21 1772.15C2586.76 1766.76 2575.75 1784.75 2565.08 1775.49L2512.19 1718.76C2503.88 1707.92 2486.53 1706.29 2472.56 1703.53C2442.01 1697.51 2426.95 1682.31 2423.69 1710.57C2423 1716.67 2422.48 1722.17 2421.49 1728.28C2413.36 1778.81 2412.88 1756.99 2401.53 1786.12C2397.31 1796.99 2399.35 1809.03 2387.71 1811.25C2378.77 1805.68 2368.28 1776.76 2357.41 1769.39C2349.47 1770.39 2341.48 1777.84 2333.65 1781.4C2319.43 1787.89 2314.08 1780.59 2300.07 1782.75C2291.44 1794.2 2290.69 1807.16 2280 1814.11C2271.71 1819.51 2249.27 1822.37 2237.76 1825.13C2220.64 1829.25 2209.73 1833.65 2195.24 1824.77C2185.87 1819.03 2168.47 1810.56 2165.05 1801.97C2169.68 1785.39 2202.67 1776.16 2204.21 1755.32C2205.28 1740.75 2202.17 1730.84 2199.07 1717.89C2193.71 1695.49 2161.71 1697.59 2148.32 1682.37C2135.31 1667.59 2123.92 1648.44 2113.35 1630.99C2108.23 1622.53 2103.03 1608.69 2096.92 1603.08C2084.68 1607.05 2081.8 1637.59 2071.89 1644.37C2058.33 1641.73 2058.69 1623.93 2048.88 1618.76C2042.97 1616.09 2023.13 1617.21 2016.08 1619.89C2006.67 1623.47 2004.37 1632.23 1992.19 1633.39C1986.4 1632.61 1969.32 1608.88 1963.4 1601.57C1959.56 1596.83 1957.91 1595.57 1953.99 1591.53C1943.33 1594.88 1930.93 1598.91 1919.43 1603C1903.67 1608.61 1888.47 1604.88 1878.17 1608.24C1872.15 1610.21 1859.12 1625.32 1853.51 1630.07C1833.87 1646.73 1846.44 1641.27 1845.37 1663.69Z" fill="#B3B6C0"/>
<path fill-rule="evenodd" clip-rule="evenodd" d="M2267.87 415.081C2260 428.041 2256.48 455.828 2253.8 472.841C2249.49 500.188 2239.32 502.947 2226.13 516.361C2211.63 531.147 2222.71 552.441 2217.11 575.334C2213 592.147 2209.87 616.161 2200.49 629.561C2188.96 630.147 2182.83 625.894 2173.23 626.134C2164.75 626.334 2120.31 652.147 2113.49 657.161C2113.71 672.774 2129.55 682.281 2129.69 696.014C2129.84 709.321 2111.05 710.267 2103.16 724.161C2104.11 745.587 2121.04 757.294 2104.11 777.961C2096.52 787.227 2048.61 854.467 2051.87 863.747C2057.99 881.187 2094.88 912.721 2070.2 931.708C2058.03 941.068 2063.52 937.028 2056.2 952.574C2053 959.388 2044.65 969.387 2045.92 975.961C2045.93 976.054 2057.43 999.534 2057.99 1000.45C2064.63 1011.57 2090.6 1021.35 2095.56 1034.29C2099.49 1044.57 2094.63 1056.55 2098.33 1066.44C2103 1078.89 2134.81 1078.87 2143.03 1093.09C2146.43 1098.99 2150.77 1110.68 2153.41 1117.61C2157.15 1127.35 2173.33 1159.4 2178.93 1163.47C2188.25 1170.23 2280.24 1148.96 2296.43 1144.6C2317.95 1138.79 2328.71 1129.05 2352.64 1134.29C2406.09 1146 2414.49 1153.44 2437.49 1192.27C2455.76 1223.09 2441.6 1221.88 2445.56 1252.89C2469.33 1266.13 2471.59 1251.72 2505.05 1285.77C2512.71 1293.56 2518.07 1292.13 2527.37 1285.91C2552.44 1269.11 2582.47 1251.6 2612.16 1244.27C2613.63 1231.87 2606.81 1207.99 2614.83 1200.65L2644 1181.65C2664.89 1167.88 2679.89 1154.25 2698.77 1140.15C2706.27 1134.55 2719.55 1122.15 2730.17 1132.04C2741.81 1142.88 2745.73 1155.95 2751.45 1158.88C2755.93 1161.16 2785.76 1163 2793.99 1164.59C2812.49 1168.16 2813.35 1180.35 2824.21 1182.89C2831.23 1175.35 2842.45 1149.57 2856.32 1147.71C2868.25 1161.36 2878.85 1191.17 2894.04 1204C2904.25 1212.63 2924.37 1221.67 2937.23 1230.57C2944.33 1235.49 2944.03 1235.71 2947.16 1245.56C2954.19 1267.6 2964.68 1292.71 2973.96 1313.43C2978.75 1324.12 2982.31 1337.05 2992.09 1341.8C2997.4 1344.36 3003.65 1345.91 3008.79 1348.37C3016.24 1351.96 3016.51 1355.45 3027.08 1354.97C3032.25 1349.28 3032.32 1348.77 3039.29 1342.83C3043.93 1338.85 3049.13 1334.48 3053.29 1330.23C3061.93 1321.4 3070.43 1312.75 3079.99 1303.79C3115.67 1270.33 3071.72 1276.35 3081.05 1228.55C3085.19 1207.32 3101.16 1160.32 3098.4 1141.05C3096.08 1124.85 3085.12 1116.84 3091.96 1098.23C3096.23 1086.61 3103.85 1073.44 3108.93 1062.01C3122.16 1032.31 3126.15 1014.4 3131.24 979.814C3133.24 966.187 3135.08 946.721 3138.59 933.921C3143.47 916.081 3151.81 913.281 3160.76 902.921C3183.31 876.787 3174.56 880.254 3208.65 846.214C3218.39 836.494 3242.88 791.121 3246.51 776.361C3212.83 779.014 3219.77 784.187 3193.73 768.161C3140.27 735.267 3156.01 775.921 3098.03 737.654C3090.71 732.814 3085.08 729.041 3079.09 723.401C3049.53 695.614 3057.85 703.974 3017.08 724.374C3002.19 731.828 2976.33 730.547 2965.32 720.894C2954.01 710.987 2942.6 703.294 2924.28 697.147C2910.6 692.561 2912.92 691.161 2900.21 697.214C2880.91 706.427 2880.28 722.534 2856.03 675.734C2849.79 663.694 2846.29 650.108 2841.12 637.508C2832.63 616.841 2832.01 620.867 2814.84 610.627C2803.31 603.761 2795.24 594.214 2777.8 592.761C2758.52 591.147 2746.03 592.681 2728.91 597.227C2716.72 600.467 2695.13 606.227 2683.69 600.601C2662.52 590.227 2637.85 569.521 2606.71 568.921C2591.07 568.614 2569.57 573.174 2559.03 564.241C2536.76 545.414 2527.17 530.601 2500.09 516.841C2485.27 509.308 2481.55 503.601 2462.79 499.281C2413.08 487.814 2422.2 489.561 2411.36 442.894C2396.12 377.174 2405.24 395.721 2404.24 345.534C2397.75 348.107 2374.4 362.414 2369.88 366.174C2360.28 374.188 2356.35 389.121 2350.76 401.827C2343.33 418.694 2337.37 419.481 2316.01 422.161C2290.99 425.294 2287.55 417.147 2267.87 415.081Z" fill="#B3B6C0"/>
<path fill-rule="evenodd" clip-rule="evenodd" d="M1960.43 1009.71C1959.29 1028.08 1961.73 1045.03 1961.87 1061.73C1961.96 1072.93 1947.19 1075.72 1937.75 1089.49L1970.69 1115.93C1973.55 1121.17 1970.97 1166.24 1968.73 1172.37C1966.77 1177.75 1948.45 1206.63 1944.85 1209.95C1935.28 1218.77 1914.76 1225.72 1908.89 1235.67C1915.85 1248.77 1932.73 1265 1936.41 1275.52C1932.95 1286.59 1910.24 1299.47 1909.69 1310.47C1909.28 1318.84 1924.69 1346.31 1928.23 1354.45C1935.39 1370.96 1922.92 1394.11 1924.27 1408.15C1926.23 1428.47 1953.52 1462.92 1961.77 1495.29C1975.32 1548.37 1971.53 1533.49 1961.16 1571.63C1956.76 1587.81 1954.51 1583.24 1978.07 1610.16C1996.49 1631.21 1984.28 1633.85 2009.71 1616.87C2016.32 1612.45 2025.56 1612.75 2035.37 1612.11C2065.45 1610.19 2055.2 1626.96 2070.24 1637.87C2076.48 1631.41 2081.67 1607.53 2091.63 1597.96C2104.4 1592.48 2115.64 1626.57 2130.65 1648.55C2137.29 1658.27 2142.48 1666.2 2149.21 1674.85C2165.92 1696.36 2195.24 1690.19 2202.89 1710.91C2206.56 1720.81 2209.8 1737.47 2209.85 1748.83C2210.03 1779.96 2185.28 1780.33 2171.04 1801.97C2174.31 1806.4 2193.55 1817.84 2200.25 1821.43C2211.89 1827.65 2227.27 1821.99 2239.92 1818.84C2251.96 1815.85 2269.29 1815.33 2277.79 1808.57C2286.44 1801.68 2288.84 1784.2 2297.41 1778.17C2308.16 1773.28 2317.17 1781.47 2329.48 1777.28C2350.29 1770.21 2354.39 1748.16 2374.32 1781.89C2378.8 1789.47 2383.85 1798.39 2389.09 1804.61C2394.29 1799.19 2394.83 1785.52 2398.93 1778.59C2403.71 1770.52 2409.09 1763.51 2411.4 1752.77C2416.05 1731.07 2417.12 1694.6 2425.53 1690.21C2435.73 1685.85 2461.64 1695.56 2473.17 1698.04C2514.11 1706.81 2506.13 1702.89 2527.92 1729.6C2542.83 1747.88 2560.63 1762.2 2571.41 1773.41C2599.69 1765.35 2588.73 1762.44 2622.04 1770.05C2631.75 1772.27 2669.39 1777.96 2678.01 1776.77C2683.37 1768.93 2689.23 1760.51 2694.91 1752.37C2739.2 1688.93 2716.71 1671.53 2741.65 1651.32C2752.11 1642.85 2789.73 1607.91 2796.12 1597.83C2797.61 1595.47 2807.48 1571.09 2808.72 1567.24C2820.47 1530.84 2791.61 1526.99 2841.13 1515.03C2875 1506.85 2863.51 1505.89 2885.21 1472.72C2893.41 1460.2 2931.8 1407.59 2940.36 1400.03C2947.59 1393.64 2959.17 1388.55 2962.76 1377.89C2950.99 1377.96 2925.01 1382.29 2917.27 1376.83C2915.83 1366.73 2926.63 1355.29 2931 1349.07C2936.15 1341.73 2940.45 1328.6 2946.65 1323.04C2956.93 1319.73 2966.72 1329.16 2975.97 1332.12C2970 1314 2952.28 1278.16 2943.55 1252.45C2938.37 1237.23 2939.71 1238.41 2927.17 1230.67C2880.68 1201.92 2887.32 1212.4 2854.69 1154.16C2841.47 1161.63 2831.08 1187.95 2824.21 1189.08C2812.17 1187.41 2812.12 1177.53 2799.71 1172.11C2793.41 1169.36 2772.17 1167.16 2764.24 1166.48C2742.92 1164.63 2747.41 1165.12 2738.17 1150.64C2733.23 1142.92 2725.85 1129.45 2715.45 1135.03C2706.93 1139.6 2652.47 1185.69 2616.76 1205.79C2615.84 1217.15 2618.81 1227.68 2618.31 1239.09C2617.79 1251.12 2609.6 1250.8 2598.55 1254.15C2578.43 1260.21 2568.15 1268.81 2552.09 1277.43C2535.33 1286.41 2517.63 1302.87 2505.53 1293.63C2491.37 1282.83 2495.65 1275.75 2464.11 1265.35C2431.56 1254.6 2439.39 1257.68 2441.43 1222.36C2442.49 1203.92 2427.24 1186.76 2419.11 1174.11C2412.95 1164.55 2412.57 1162.09 2401.59 1156.73C2377.39 1144.89 2347.17 1132.71 2320.91 1142.57C2287.55 1155.11 2244.53 1161.01 2207.35 1168.49C2173.13 1175.36 2176.17 1170.69 2162.43 1148.45C2152.75 1132.81 2148.48 1118.07 2140.32 1100.83C2133.97 1087.43 2134.44 1091.63 2120.53 1085.71C2091.03 1073.15 2091.59 1077.59 2091.67 1044.59C2091.68 1033.12 2084.75 1028.85 2077.69 1023.96C2042.6 999.561 2063.12 1004.53 2027.05 1004.8C2004.49 1004.96 1982.67 1008.24 1960.43 1009.71Z" fill="#B3B6C0"/>
<path fill-rule="evenodd" clip-rule="evenodd" d="M1407.09 901.081C1412.29 910.841 1418.93 920.201 1425.77 930.187C1433.31 941.201 1439.12 945.787 1436.41 963.534C1432 992.441 1435.01 985.681 1420.33 994.307C1410.44 1000.12 1403.13 1008.48 1394.61 1014.84L1396.84 1119.39C1397.76 1140.47 1399.43 1150.24 1402.56 1169.49C1405.44 1187.31 1394.31 1199.24 1386.69 1208.12C1381.76 1213.88 1379.28 1217.51 1374.35 1222.35C1369.09 1227.51 1364.95 1231.07 1360.08 1236.32C1349.67 1247.52 1341.79 1252.87 1331.99 1262.99C1322.32 1272.99 1317.35 1279.97 1298.81 1284.69C1284.21 1288.41 1267.93 1290.63 1253.77 1294.43C1248.65 1388.57 1222.37 1383.55 1215.07 1410.35C1212.55 1419.57 1212.35 1446.27 1211.04 1458.2L1258.25 1483.01C1281.55 1494.47 1270.56 1497.97 1284.16 1528.12C1306.72 1529.69 1333.83 1519.13 1353.19 1519.65C1364.44 1531.8 1402.69 1583.49 1410.84 1601.13C1416.35 1613.03 1419.24 1623.88 1424.04 1636.04C1428.89 1648.29 1457.65 1675.05 1469.51 1685.29C1483.27 1697.19 1482.33 1690.27 1491.47 1709.84C1496.59 1720.81 1502.92 1732.59 1507.01 1742.25C1515.4 1742.87 1531.96 1746.75 1535.25 1746.65C1540.07 1746.53 1577.61 1730.53 1616.87 1727.08C1662.35 1723.07 1706.39 1726.77 1751.81 1725.57C1758.16 1716.83 1777.89 1684.88 1783.21 1681C1785.83 1679.09 1834.95 1662.24 1839.97 1661.08C1836.35 1628.27 1831.13 1645.47 1864.28 1612.6C1886.79 1590.29 1880.16 1611.53 1923.61 1595.55C1963.24 1580.96 1946.43 1594.63 1960.17 1555.69C1968.44 1532.25 1962.53 1518.25 1955.89 1494.55C1948.81 1469.23 1940.95 1463.01 1931.76 1442.25C1918 1411.15 1916.76 1419.03 1923.11 1382.53C1931.35 1335.2 1887.09 1321.77 1911.67 1296.31C1915.52 1292.32 1916.69 1289.51 1920.6 1285.31C1924.04 1281.63 1927.03 1279.08 1930.19 1275.52C1924.49 1264.4 1910.67 1252.23 1904.73 1239.91C1898.71 1227.44 1916.25 1222.21 1934.15 1210.84C1943.77 1204.73 1942.63 1205.4 1948.6 1195.4C1952.71 1188.53 1956.93 1182.59 1960.81 1176.08C1966.77 1166.08 1967.52 1133.36 1966.36 1119.41C1958.91 1112.33 1950.33 1106.97 1942.64 1100.85C1927.68 1088.95 1933.28 1089.99 1909.15 1089.68L1821.41 1089.28C1819.93 1079.77 1827.37 1063.65 1826.31 1049.65C1816.43 1042.95 1781.83 1034.53 1767.36 1031.93C1745.71 1028.03 1713.92 1037.95 1695.57 1033.91C1688.43 1028.12 1684.89 1012.19 1682.04 1001.08C1678.52 987.427 1669.51 983.507 1660.4 976.227C1644.67 963.627 1636.41 939.561 1623.12 920.521C1592.2 876.227 1595.68 893.627 1588.44 839.054C1587.45 831.574 1588.17 824.814 1584.41 819.707C1580.72 814.681 1566.43 798.734 1562.15 795.587C1550.51 825.107 1556.87 819.374 1540.28 838.521C1525.91 855.121 1528.47 859.614 1495.63 859.494C1458.12 859.374 1472.08 858.614 1447.79 875.627C1436.93 883.227 1420.01 896.214 1407.09 901.081Z" fill="#B3B6C0"/>
<path fill-rule="evenodd" clip-rule="evenodd" d="M1549.04 368.587C1556.51 381.52 1617.09 422.587 1629.97 433.013C1632.03 455.88 1632.75 487 1631.77 509.96C1630.24 546.093 1630.16 544.773 1639.12 577.32C1647.15 606.48 1611.27 597.654 1636.57 631.374C1643.75 640.92 1648.32 641.947 1638.76 654.707C1634 661.08 1624.08 670.187 1622.01 677.867C1640.04 685.667 1648.76 699.227 1672.99 701.493C1695.83 703.64 1719.16 704.2 1742.01 706.693C1816.63 714.813 1884.17 746.373 1932.71 737.787C1965.96 731.907 1969.45 730.894 1988.03 749.907C2003.79 766.04 2008.4 768.053 2021.45 791.213C2026.89 800.853 2055.27 818.32 2066.92 821.507C2072.91 815.774 2081.37 800.72 2086.32 793.4C2093.21 783.16 2105.13 769.72 2105.73 762.36C2106.81 748.813 2095.56 732.067 2098.07 722.067C2100.87 710.92 2116.49 708.267 2124.16 697.587C2122.49 683.16 2113.04 677.44 2109.21 666.733C2103.67 651.213 2118.19 646.934 2128.2 640.974C2137.68 635.334 2148.93 630.987 2158.85 625.12C2175.2 615.44 2181.64 624.36 2197.84 624.067C2203.21 616.093 2210.2 581.813 2212.83 569.467C2217.56 547.213 2205.83 528.32 2222.23 512.453C2236.53 498.613 2244.05 498.04 2248.76 469.133L2261.29 411.947C2252.72 406.053 2240.73 406.267 2232.75 400.32C2233.25 388.827 2247.52 374.974 2249.68 365.44C2244.45 360.8 2243.07 360.387 2239.32 355.787C2234.83 350.293 2235.43 350.973 2229.85 346.013C2228.67 325.84 2245.81 318.853 2230.6 301.387C2225.64 295.707 2207.44 276.987 2200.35 275.347C2171.12 268.547 2158.59 270.667 2134.48 285.2C2126.01 290.293 2124.77 296.774 2115.48 295.307C2111.88 279.654 2113.49 235.36 2103.23 227.827C2078.32 209.56 2042.61 218.52 2034.19 215.68C2026.47 213.067 2021.71 200.147 2017.64 192.187C2000.57 158.773 2016.2 137.84 2004.83 125.347C2004.32 124.787 1982 109.027 1980.24 108.24C1969.88 103.574 1962.76 112.96 1953.45 117.453C1920.21 133.493 1922.37 141.84 1901.08 124.413C1862.95 93.2267 1874.88 110.4 1850.64 93.4535C1837.44 84.2268 1842.29 83.0535 1842.53 64.9202C1842.77 47.2535 1835.8 11.6933 1826.11 0.0266766C1817.57 -0.19999 1776 13.2134 1762.49 16.2801C1730.76 23.4934 1691 28.6802 1662.03 36.9202C1650 40.3335 1631.31 56.2534 1612.44 67.0668C1598.23 75.2134 1595.37 72.1201 1595.87 91.3467C1597.24 146 1586.85 189.56 1585.56 242.507C1584.92 268.24 1580.89 294.214 1580.41 319.04C1580.15 332.8 1569.55 342.427 1558.81 357.213C1555.17 362.227 1553.25 364.147 1549.04 368.587Z" fill="#B3B6C0"/>
<path fill-rule="evenodd" clip-rule="evenodd" d="M928.147 947.027C930.92 965.601 933.32 984.108 935.933 1003.11C940.067 1033.19 938.76 1029.12 923.48 1048.84C911.293 1064.57 952.333 1124.88 949.133 1147.91C940.4 1153.08 923.853 1154.33 911.627 1156.88C894.053 1160.52 882.294 1206 871.587 1211.15C859.894 1216.76 844.64 1206.83 828.227 1215.96C818.36 1221.45 808.373 1226.96 798.493 1232.72L768.947 1251.32C750.533 1262.83 708.373 1259.72 689.627 1266.55C677.867 1273.83 672.56 1316.84 652.333 1324.07C638.48 1329.01 602.067 1349.87 592.107 1360.13L565.854 1398.41C570.16 1403.49 615.227 1432.35 618.613 1433.53C635.227 1439.31 648.614 1406.67 676.854 1406.67C688.054 1406.67 704.133 1410.11 714.88 1413.49C721.907 1415.71 721.307 1415.08 722.974 1420C718.854 1426.15 713.253 1424.08 699.227 1427.44C658.2 1437.24 662.92 1434.61 658.374 1449.63C655.627 1458.72 651.573 1467 652.2 1476.47C664.093 1486.56 687.373 1488.27 693.867 1499.77C694.747 1502.39 690.52 1532.84 688.667 1536.4C683.947 1545.51 673 1552.77 667.36 1559.57C668.24 1573.88 700.987 1623.61 708.574 1632.48C726.094 1652.96 719.173 1642.83 730.613 1668.53C745.36 1701.64 748.08 1704.07 786 1729.4C796.733 1736.57 853.107 1759.52 867.374 1764.27C876.12 1767.19 912.067 1767.36 922.68 1767.03C927.88 1759.59 933.587 1747.51 939.28 1743.72C949 1746.61 949.6 1760.48 967.52 1769.2C995.014 1757.71 1028.12 1754.19 1045.29 1742.09C1044.75 1736.24 1035.37 1706.35 1033.25 1684.43C1030.97 1660.88 1030.01 1646.11 1024.79 1623.41C1020.6 1605.27 1010.49 1592.04 1002.85 1575.67C998.854 1567.13 995.747 1560.79 991.187 1552.45C985.734 1542.47 978.507 1540.37 979.054 1527.29C992.387 1516.6 1013.39 1522.03 1025.28 1509.32C1030.67 1503.55 1034.56 1498.57 1040.59 1493.07C1048.16 1486.13 1047.97 1483.45 1060.59 1479.95C1073.52 1476.35 1102.72 1472.63 1117.12 1471.51C1128.29 1470.63 1134.16 1474.93 1144.33 1477.43C1158.43 1480.87 1159.47 1482.85 1171.16 1475.83C1178.08 1471.68 1184.52 1468.69 1192.32 1465.44C1204.96 1460.19 1205.73 1461.52 1206.89 1446.61C1209 1419.17 1205.16 1413.24 1218.61 1392.09C1239.12 1359.87 1239.04 1363.85 1246.47 1322.01C1248.84 1308.68 1247.45 1302.81 1248.07 1289.92C1299.03 1277.85 1299.25 1287.31 1332.39 1255.09C1356.36 1231.8 1370.24 1221.45 1391.41 1192.88C1401.88 1178.76 1396.76 1171.44 1393.72 1154.97C1388.81 1128.37 1391.16 1087.88 1390.63 1059.73C1380.55 1055.6 1362.99 1052.32 1351.49 1049.33C1332.89 1044.49 1329.41 1040.23 1316.13 1033.19C1288.8 1018.71 1294.79 1010.11 1282.09 966.281C1271.17 968.814 1256.31 978.814 1245.71 984.094C1232.21 990.827 1217.61 992.961 1200.07 991.427C1184.05 990.014 1148.43 952.974 1138.57 945.414C1132.04 946.467 1123.84 952.267 1117.56 955.587C1107.57 960.854 1099.69 957.347 1088.81 956.534C1068.37 955.027 1052.32 963.081 1033.69 966.387C992.72 973.667 965.067 949.641 928.147 947.027Z" fill="#B3B6C0"/>
<path fill-rule="evenodd" clip-rule="evenodd" d="M1268.96 611.227C1265.12 618.24 1237.44 632.027 1227.41 636.947C1189.11 655.734 1212.64 644.107 1175.2 654.521C1150.72 661.334 1147.29 668.027 1119.73 659.921C1068.68 644.907 1055.29 656.227 996.2 643.947C970.64 638.627 962.84 635.52 934.307 636.294C905.04 637.094 909.894 636.681 891.454 609.241C886.747 602.241 882.827 594.401 878.374 587.467C861.747 561.654 856.427 577.16 876.36 548.294L887.307 525.201C881.134 521.214 855.8 514.347 846.64 515.321C837.974 516.254 816.76 524 804.747 526.427C766.84 534.107 746.933 522.681 711.467 520.667C717.053 534.587 737.173 540.561 736.813 552.907C736.32 570.054 723.293 562.974 735.027 599.574C749.333 644.241 735.254 628.867 766.24 654.747L782.267 668.614C793.747 680.814 791.867 686.321 798.4 708.974C807.8 741.561 809.56 865.934 812.04 869.827C816.574 873.734 827.28 877.734 833.627 881.307C839.133 884.387 852.2 889.201 854.2 895.414C849.587 898.947 815.694 910.907 806.84 913.694C807.867 920.014 810.213 924.841 812.08 931.094C815.08 941.134 815.693 939.627 823.427 944.614C832.267 950.334 842.974 960.934 851.107 964.401C858.16 959.934 866.68 947.801 873.613 942.481C882.213 935.894 901.16 939.694 914.4 940.107C942.387 940.987 964.053 950.241 988.48 957.214C1025.17 967.707 1033.44 959.867 1066.41 952.707C1085.83 948.494 1091.63 953.694 1106.93 953.041C1118.89 952.534 1127 939.481 1140.23 939.867C1142.76 940.561 1185.65 984.787 1201.88 985.907C1248.39 989.107 1273.35 956.001 1283.88 960.854C1291.55 968.827 1292.92 984.427 1296.01 996.881C1300.93 1016.68 1299.96 1018.08 1315.95 1026.73C1346.01 1043.01 1350.32 1045.52 1390.03 1053.08C1390.03 1021.96 1381.89 1017.03 1396.96 1005.83C1402.79 1001.51 1406.35 997.427 1412.47 993.067C1418.68 988.641 1426.45 987.241 1428.36 979.334C1436.59 945.254 1429.84 948.561 1411.19 918.187C1407.05 911.481 1401.03 905.881 1399.83 900.307C1411.75 890.574 1443.59 875.067 1460.59 858.481C1468.23 851.014 1489.08 854.134 1510.84 852.761C1521.72 852.081 1520.45 852.587 1526.32 846.161C1557.8 811.694 1541.73 826.201 1559.2 789.334C1576.05 753.761 1560.79 738.694 1587.52 728.027C1603.84 721.507 1603.87 721.921 1608.36 704.014C1609.76 698.414 1617.07 673.441 1619.17 670.014C1624.61 661.134 1632.91 654.987 1638.67 644.441C1634.55 632.161 1613.65 621.974 1624.99 602.734C1629.75 594.654 1636.29 592.001 1634.67 581.974C1633.79 576.574 1629.41 563.081 1627.67 557.214C1621.84 537.587 1626.41 519.041 1626.45 498.307C1626.49 477.827 1625.85 457.001 1624.89 436.507C1601.52 416.601 1577.88 404.787 1545.69 373.96C1540.81 375.76 1530 385 1523.99 388.827L1453.89 428.347C1439.39 434.774 1414.25 440.467 1397.87 445.36C1335 464.16 1348.07 465.427 1297.11 490.801C1277.37 500.627 1255.99 505.107 1251.01 517.774C1248.12 525.161 1232.56 566.387 1234.13 572.334C1235.68 578.161 1264.49 601.44 1268.96 611.227Z" fill="#B3B6C0"/>
<path fill-rule="evenodd" clip-rule="evenodd" d="M2740.95 2255.93C2754.15 2261.71 2771.31 2258.91 2776.95 2271.05C2779.25 2276.01 2788.09 2306.05 2786.33 2310.55C2780.49 2325.57 2742.12 2310.03 2700.61 2327.73C2679.24 2336.85 2682.76 2333.95 2669.72 2348.32C2655.4 2364.09 2647.48 2373.17 2625.75 2380.72C2594.41 2391.61 2619.83 2406.08 2612.04 2440.17C2603.87 2442.8 2596.47 2442.31 2586.73 2442.61C2555.91 2443.61 2551.44 2438.2 2566.65 2492.96C2570.47 2506.73 2605.29 2519.96 2610.15 2535.65C2611.73 2540.77 2612.8 2557.2 2611.56 2562.31C2608.99 2572.89 2578.96 2587.51 2578.43 2587.44C2572.48 2584.52 2577.29 2585.88 2571.24 2581.39L2545.33 2565.76C2522.61 2551.03 2538.08 2556.27 2506.71 2547.92C2442.27 2530.77 2465.61 2520.95 2457.43 2485.95C2449.72 2484.64 2438.19 2482.84 2430.07 2485.64C2428.53 2498.31 2442.73 2510.8 2441.6 2519.15C2440.73 2525.48 2421.67 2539.45 2415.67 2540.55C2404.81 2535.67 2398.96 2522.91 2390.65 2516.68C2383.6 2517.71 2368.48 2527.07 2364.57 2531.03C2368.13 2547.69 2375.89 2576.21 2382.75 2590.52C2387.49 2600.43 2408.48 2636.09 2406.48 2644.39C2399.63 2653.25 2383.44 2648.29 2374 2653.59C2369.33 2657.68 2358.24 2744.23 2357.51 2745.27C2345.99 2753.37 2325.64 2748.43 2311.04 2749.97C2301.85 2754.47 2294.07 2795.23 2276.29 2801.92C2267.77 2805.12 2263.69 2803.87 2255.07 2809.6C2254.79 2809.77 2254.31 2810.13 2253.96 2810.43C2269.43 2816.35 2289.99 2832.37 2304.4 2835.84C2323.59 2822.15 2318.2 2780.01 2343.12 2807.84C2346.64 2811.77 2353.57 2816.72 2354.51 2823.33C2355.27 2828.64 2352.99 2841.79 2352 2847.55C2351.31 2851.59 2349.36 2868.44 2353.01 2871.53C2358.11 2874.23 2386.68 2876.4 2394.35 2876.31C2411.23 2845.47 2439.67 2845.64 2463.68 2864.97C2474.21 2873.45 2479.49 2881.79 2498.61 2877.99C2513.4 2875.04 2533.24 2866.09 2536.51 2883.36C2538.84 2895.68 2539.43 2917.47 2548.44 2923.07L2625.4 2952.37C2635.93 2957.28 2643.47 2970.41 2654.81 2976.37C2664.09 2972.19 2670.69 2958.55 2682.56 2961.24C2692.64 2963.53 2700.24 2976.23 2712.49 2975.16C2718.15 2974.67 2734.81 2966.81 2744.81 2964.76C2758.16 2962.04 2772.72 2962.75 2785.97 2960.93C2790.12 2954.8 2795.81 2949.29 2801.59 2943.52C2818.52 2926.55 2832.96 2937.24 2847.47 2921.32C2866 2900.97 2857.03 2885.67 2863.03 2868.76C2867.2 2856.99 2872.03 2857.39 2877.31 2848.19C2890.27 2825.64 2914.49 2845.79 2926.96 2828.11C2949.27 2796.49 2931.09 2817.45 2958.23 2791.25C2964.31 2785.39 2968.6 2778.93 2974.47 2772.6C2997.61 2747.6 3006.84 2743.75 3034.97 2730.19C3042.21 2726.71 3051.49 2722.43 3057.92 2718.25C3062.05 2715.56 3063.11 2713.81 3067.67 2711.37C3072.28 2708.92 3075.13 2708.84 3079.71 2705.4C3080.04 2692.17 3058.73 2685.44 3069.75 2666.99C3075.96 2656.59 3086.43 2644.41 3093.76 2634.51C3099.09 2627.29 3118.13 2608.88 3120.2 2604.35C3124.24 2595.44 3106.8 2574.31 3103.63 2567.59C3085.03 2567.44 3072.03 2578.31 3053.73 2581.44C3037.23 2584.27 3021.64 2572.01 3009.29 2565.16C2996.4 2558 2980.88 2550.79 2967.95 2543.4C2918.89 2515.41 2926.61 2505.39 2919.27 2464.32C2914.28 2436.53 2919.81 2435.11 2927.21 2413.12C2939.89 2375.48 2957.19 2365.73 2953.17 2345.83C2945.87 2309.51 2960.61 2315.35 2932.24 2311.79C2895.75 2307.21 2899.71 2298.87 2891.55 2284.33L2855.76 2229.25C2837.79 2232.16 2825 2242.35 2808.53 2231.17C2801.24 2226.24 2800.39 2220.97 2789.41 2220.16C2781.12 2219.56 2766.71 2217.56 2759.23 2218.71C2756.05 2223.52 2753.01 2229.51 2749.59 2235.52C2745.77 2242.19 2740.72 2246.55 2740.95 2255.93Z" fill="#B3B6C0"/>
<path fill-rule="evenodd" clip-rule="evenodd" d="M291.506 895.041C279.466 897.521 251.307 883.574 239.52 879.974C237.173 889.107 234.866 903.8 230.146 909.76C216.493 908.094 207.853 877.667 185.546 880.36C150.373 884.614 150.346 884.787 127.413 897.08C117.346 902.48 102.56 907.747 91.0798 912.241C78.7998 917.067 66.5199 920.587 54.5599 925.547C37.6799 932.547 -0.226762 949.174 -0.346762 969.867C-0.440096 984.801 1.1998 1003.4 1.8798 1018.93C20.1465 1020.52 57.4132 1013.25 79.0398 1013.05C91.6665 1012.93 136.827 1025.44 138.187 1037.61C127.747 1043.99 66.2798 1042.15 48.3465 1044.08C46.4798 1052.03 51.5065 1064.55 54.3465 1070.95C67.9998 1073 91.6132 1067.53 101.506 1072.01C107.693 1074.83 110.16 1079.16 114.706 1083.73C127 1096.11 131.053 1098.73 113.267 1102.21C107.573 1103.33 105.173 1104.01 100.306 1105.81C85.6265 1111.28 46.9999 1116 27.1199 1127.35C23.8932 1129.19 25.1199 1128.51 23.9866 1129.37C32.7599 1136.27 43.4265 1140.43 52.2265 1146.2C60.9199 1151.92 70.4265 1159.29 80.3732 1164.56C101.973 1175.99 102.093 1187.56 117.373 1218.88C129.386 1219.11 143.213 1218.21 151.427 1211.79C156.613 1207.73 159.787 1207.31 165.053 1203.77C171.84 1199.23 168.52 1196.44 173.827 1190.97C179.213 1185.44 197.733 1179.21 205.906 1185.17C226.906 1200.48 230.96 1222.81 251.133 1226.15C265.613 1228.53 316.133 1231.73 324.813 1238.96C332.6 1245.43 337.506 1253.48 347.106 1259.88C356.306 1266.01 363.506 1268.91 373.266 1275.23C380.813 1280.12 392.44 1286.97 401.16 1290.51C420.947 1298.55 447.746 1300.29 469.84 1308.21C523.386 1327.41 519.066 1312.36 540.893 1316.59C547.053 1317.79 563.747 1327.28 570.4 1330.52C582.507 1336.41 583.053 1343.33 593.853 1350.23C608.853 1343.67 621.733 1331.84 636.013 1324.33C660.186 1311.61 652.546 1328.24 670.88 1289.47C685.986 1257.52 682.893 1260.41 708.84 1258.07C765.547 1252.93 762.306 1247.76 810.146 1219.45C852.6 1194.32 848.146 1212.79 867.226 1206.67C874.52 1204.33 881.56 1181.25 894.68 1164.49C902.88 1154.03 900.387 1152.91 915.84 1150.68C919.973 1150.08 940.48 1145.85 943.787 1144.32C944.173 1126.61 907.64 1063.73 916.8 1048.79C933.32 1021.84 935.08 1039.83 930.187 1002.15C928.213 986.96 926.026 959.547 921.666 946.054C910.84 945.454 885.32 941.361 878 946.801C870.773 952.174 858.56 970.08 849.76 969.68C844.746 969.454 825.2 952.281 819.533 948.521C808.773 941.387 805.413 936.081 801.426 915.067C719.2 917.854 737.987 924.894 706.64 894.094C689.08 901.44 700.333 916.214 646.907 914.56C615.387 913.574 620.227 895.374 582.853 909.107C546.92 922.321 563.253 914.654 530.68 938.387C522.706 944.201 515.613 939.747 502.933 931.307C493.12 924.787 479.653 899.574 468.093 884.774C461.707 876.601 455.64 870.814 448.84 862.547C441.12 853.147 439.987 847.6 427.027 842.827C386.92 828.054 396.933 836.681 360.853 840.001C348.067 841.174 335.906 842.161 323.506 843.987C311.773 845.721 296.28 844.107 294.866 856.947C293.613 868.44 295.013 886.347 291.506 895.041Z" fill="#B3B6C0"/>
<path fill-rule="evenodd" clip-rule="evenodd" d="M1826.55 1084.31C1844.05 1084.92 1861.48 1083.08 1879.25 1083.47C1897.92 1083.88 1916.27 1084.25 1934.72 1085.05C1941.25 1075.77 1948.65 1072.65 1956.01 1064.61C1956.36 1045.84 1952.88 1025.51 1955.51 1006.03C1970.27 1000.25 2029.91 999.614 2050.56 998.494C2048 990.36 2041.28 982.08 2040.33 976.267C2038.8 966.76 2046.12 960.587 2049.97 953.027C2053.97 945.2 2054.96 937.387 2060.56 932.04C2065.72 927.12 2075.71 922.374 2073.2 912.48C2071.17 904.494 2053.84 877.24 2049.6 871C2037.69 853.494 2057.89 841.347 2063.04 827.12C2055.97 820.894 2026.27 808.694 2018.68 797.28C1996.24 763.52 2017.95 786.894 1985.36 755.894C1964.55 736.08 1972.97 736.227 1931.84 743.507C1905.92 748.107 1890.76 743.96 1866.8 738.187C1758.45 712.067 1776.43 715.654 1673.56 707.067C1645.6 704.72 1640.89 691.534 1621.84 684.16C1615.52 692.88 1614.11 706.507 1610.25 717.56C1604.99 732.64 1595.13 727.894 1582.21 736.027C1574.97 740.574 1573.44 761.307 1570.91 771.147C1565.07 793.8 1559.75 783.774 1587 813.8C1592.37 819.734 1592.24 820.52 1593 830.427C1598.45 902.32 1611.83 885.907 1634.83 928.707C1640.39 939.054 1644.65 947.747 1651.21 957.187C1659.72 969.454 1663.41 971.64 1674.43 980.467C1687.57 991 1685.08 993.227 1690.48 1010.89C1696.99 1032.23 1694.43 1029.76 1716.48 1028.23C1754.47 1025.6 1761.04 1023.81 1797.51 1033.33C1804.63 1035.19 1828.19 1041.99 1830.92 1046.47C1834.92 1052.99 1828.65 1077.51 1826.55 1084.31Z" fill="#B3B6C0"/>
</g>
<defs>
<clipPath id="clip0_17708_1666">
<rect width="3247" height="3245" fill="white"/>
</clipPath>
</defs>
</svg>
